<svg width="24" height="28" viewBox="0 0 24 28" fill="none" xmlns="http://www.w3.org/2000/svg">
<path d="M20.7885 6.48778C20.6113 6.39613 20.4388 6.29567 20.2717 6.18678C19.786 5.86562 19.3406 5.48724 18.9452 5.05978C17.9547 3.92695 17.5849 2.77778 17.4495 1.97395H17.4542C17.341 1.30545 17.3877 0.873779 17.3959 0.873779H12.8867V18.3073C12.8867 18.5406 12.8867 18.7728 12.8774 19.0014C12.8774 19.0294 12.8739 19.0551 12.8727 19.0866C12.8727 19.0983 12.8727 19.1123 12.8692 19.1251V19.1356C12.8218 19.761 12.6215 20.3651 12.2858 20.8949C11.9502 21.4246 11.4894 21.8637 10.9442 22.1736C10.3754 22.4972 9.73197 22.6669 9.07753 22.6659C6.97753 22.6659 5.27419 20.9533 5.27419 18.8381C5.27419 16.7218 6.97753 15.0091 9.07753 15.0091C9.47536 15.0091 9.87086 15.0721 10.2489 15.1958L10.2547 10.6038C9.10671 10.4557 7.94049 10.5472 6.82964 10.8725C5.71879 11.1978 4.68744 11.7498 3.80069 12.4938C3.02352 13.1687 2.37011 13.9742 1.86986 14.8738C1.67969 15.2016 0.961027 16.5211 0.874693 18.6608C0.81986 19.8741 1.18503 21.1341 1.35886 21.6533V21.6649C1.46736 21.9706 1.89203 23.0159 2.58269 23.8968C3.13965 24.6038 3.79772 25.2249 4.53569 25.7401V25.7284L4.54619 25.7401C6.72786 27.2218 9.14869 27.1249 9.14869 27.1249C9.56753 27.1074 10.971 27.1249 12.5647 26.3701C14.3322 25.5324 15.3379 24.2853 15.3379 24.2853C15.9808 23.5399 16.4921 22.6905 16.8499 21.7734C17.2582 20.7001 17.3935 19.4144 17.3935 18.9011V9.65061C17.4484 9.68328 18.1775 10.1651 18.1775 10.1651C18.1775 10.1651 19.2275 10.8383 20.8644 11.2758C22.038 11.5873 23.6212 11.6538 23.6212 11.6538V7.17728C23.067 7.23795 21.9412 7.06295 20.7874 6.48895L20.7885 6.48778Z" fill="#020419"/>
</svg>
