<svg width="29" height="28" viewBox="0 0 29 28" fill="none" xmlns="http://www.w3.org/2000/svg">
<path fill-rule="evenodd" clip-rule="evenodd" d="M14.3788 0.345459C6.64381 0.345459 0.378807 6.61046 0.378807 14.3455C0.378807 20.5405 4.38631 25.773 9.95131 27.628C10.6513 27.7505 10.9138 27.3305 10.9138 26.963C10.9138 26.6305 10.8963 25.528 10.8963 24.3555C7.37881 25.003 6.46881 23.498 6.18881 22.7105C6.03131 22.308 5.34881 21.0655 4.75381 20.733C4.26381 20.4705 3.56381 19.823 4.73631 19.8055C5.83881 19.788 6.62631 20.8205 6.88881 21.2405C8.14881 23.358 10.1613 22.763 10.9663 22.3955C11.0888 21.4855 11.4563 20.873 11.8588 20.523C8.74381 20.173 5.48881 18.9655 5.48881 13.6105C5.48881 12.088 6.03131 10.828 6.92381 9.84796C6.78381 9.49796 6.29381 8.06296 7.06381 6.13796C7.06381 6.13796 8.23631 5.77046 10.9138 7.57296C12.0338 7.25796 13.2238 7.10046 14.4138 7.10046C15.6038 7.10046 16.7938 7.25796 17.9138 7.57296C20.5913 5.75296 21.7638 6.13796 21.7638 6.13796C22.5338 8.06296 22.0438 9.49796 21.9038 9.84796C22.7963 10.828 23.3388 12.0705 23.3388 13.6105C23.3388 18.983 20.0663 20.173 16.9513 20.523C17.4588 20.9605 17.8963 21.8005 17.8963 23.113C17.8963 24.9855 17.8788 26.4905 17.8788 26.963C17.8788 27.3305 18.1413 27.768 18.8413 27.628C21.6205 26.6896 24.0355 24.9034 25.7464 22.5207C27.4573 20.138 28.378 17.2788 28.3788 14.3455C28.3788 6.61046 22.1138 0.345459 14.3788 0.345459Z" fill="#020419"/>
</svg>
