<svg width="27" height="22" viewBox="0 0 27 22" fill="none" xmlns="http://www.w3.org/2000/svg">
<path d="M26.8691 2.78686C25.895 3.21853 24.8485 3.51019 23.7483 3.64203C24.8835 2.96278 25.7327 1.89374 26.1376 0.63436C25.0711 1.26785 23.9039 1.71375 22.6866 1.95269C21.8681 1.0787 20.7839 0.499407 19.6024 0.304746C18.4208 0.110085 17.2081 0.31095 16.1524 0.876155C15.0968 1.44136 14.2572 2.33928 13.7642 3.43051C13.2711 4.52175 13.1521 5.74523 13.4256 6.91103C11.2646 6.80252 9.15055 6.24083 7.22064 5.26242C5.29074 4.284 3.58813 2.91071 2.22331 1.23169C1.75665 2.03669 1.48831 2.97003 1.48831 3.96403C1.48779 4.85885 1.70815 5.73998 2.12984 6.52921C2.55153 7.31845 3.1615 7.9914 3.90565 8.48836C3.04264 8.4609 2.19867 8.22771 1.44398 7.80819V7.87819C1.44389 9.13322 1.87802 10.3496 2.67269 11.321C3.46737 12.2924 4.57365 12.9589 5.80381 13.2075C5.00323 13.4242 4.16388 13.4561 3.34915 13.3009C3.69623 14.3807 4.37231 15.3251 5.28274 16.0016C6.19318 16.6782 7.29238 17.0531 8.42648 17.0739C6.50129 18.5852 4.12368 19.405 1.67615 19.4014C1.24259 19.4015 0.809404 19.3762 0.378815 19.3255C2.8632 20.9229 5.75521 21.7707 8.70881 21.7674C18.7071 21.7674 24.173 13.4864 24.173 6.30436C24.173 6.07103 24.1671 5.83536 24.1566 5.60203C25.2198 4.83316 26.1375 3.88107 26.8668 2.79036L26.8691 2.78686Z" fill="#020419"/>
</svg>
