<svg width="73" height="73" viewBox="0 0 73 73" fill="none" xmlns="http://www.w3.org/2000/svg">
<rect width="73" height="73" rx="5" fill="url(#paint0_linear_47_6)"/>
<path d="M55 47.6447C46.7778 51.4512 46.7778 37.1741 36.5 43.7635C26.2222 37.1741 26.2222 51.4512 18 47.6447C20.0556 56.9424 30.3333 56.9424 36.5 50.353C42.6667 56.9424 52.9444 56.9424 55 47.6447Z" fill="#FDE8C2"/>
<path d="M22.7516 25.54C23.7916 25.54 24.6166 25.855 25.2266 26.485C25.8466 27.115 26.1566 27.99 26.1566 29.11V34H23.6066V29.455C23.6066 28.915 23.4616 28.5 23.1716 28.21C22.8916 27.91 22.5016 27.76 22.0016 27.76C21.5016 27.76 21.1066 27.91 20.8166 28.21C20.5366 28.5 20.3966 28.915 20.3966 29.455V34H17.8466V29.455C17.8466 28.915 17.7016 28.5 17.4116 28.21C17.1316 27.91 16.7416 27.76 16.2416 27.76C15.7416 27.76 15.3466 27.91 15.0566 28.21C14.7766 28.5 14.6366 28.915 14.6366 29.455V34H12.0716V25.63H14.6366V26.68C14.8966 26.33 15.2366 26.055 15.6566 25.855C16.0766 25.645 16.5516 25.54 17.0816 25.54C17.7116 25.54 18.2716 25.675 18.7616 25.945C19.2616 26.215 19.6516 26.6 19.9316 27.1C20.2216 26.64 20.6166 26.265 21.1166 25.975C21.6166 25.685 22.1616 25.54 22.7516 25.54ZM30.5155 27.025C30.8155 26.565 31.1905 26.205 31.6405 25.945C32.0905 25.675 32.5905 25.54 33.1405 25.54V28.255H32.4355C31.7955 28.255 31.3155 28.395 30.9955 28.675C30.6755 28.945 30.5155 29.425 30.5155 30.115V34H27.9505V25.63H30.5155V27.025ZM35.5665 34.12C35.1165 34.12 34.7465 33.99 34.4565 33.73C34.1765 33.46 34.0365 33.13 34.0365 32.74C34.0365 32.34 34.1765 32.005 34.4565 31.735C34.7465 31.465 35.1165 31.33 35.5665 31.33C36.0065 31.33 36.3665 31.465 36.6465 31.735C36.9365 32.005 37.0815 32.34 37.0815 32.74C37.0815 33.13 36.9365 33.46 36.6465 33.73C36.3665 33.99 36.0065 34.12 35.5665 34.12ZM44.9586 25.51C45.5486 25.51 46.0636 25.63 46.5036 25.87C46.9536 26.11 47.2986 26.425 47.5386 26.815V25.63H50.1036V33.985C50.1036 34.755 49.9486 35.45 49.6386 36.07C49.3386 36.7 48.8736 37.2 48.2436 37.57C47.6236 37.94 46.8486 38.125 45.9186 38.125C44.6786 38.125 43.6736 37.83 42.9036 37.24C42.1336 36.66 41.6936 35.87 41.5836 34.87H44.1186C44.1986 35.19 44.3886 35.44 44.6886 35.62C44.9886 35.81 45.3586 35.905 45.7986 35.905C46.3286 35.905 46.7486 35.75 47.0586 35.44C47.3786 35.14 47.5386 34.655 47.5386 33.985V32.8C47.2886 33.19 46.9436 33.51 46.5036 33.76C46.0636 34 45.5486 34.12 44.9586 34.12C44.2686 34.12 43.6436 33.945 43.0836 33.595C42.5236 33.235 42.0786 32.73 41.7486 32.08C41.4286 31.42 41.2686 30.66 41.2686 29.8C41.2686 28.94 41.4286 28.185 41.7486 27.535C42.0786 26.885 42.5236 26.385 43.0836 26.035C43.6436 25.685 44.2686 25.51 44.9586 25.51ZM47.5386 29.815C47.5386 29.175 47.3586 28.67 46.9986 28.3C46.6486 27.93 46.2186 27.745 45.7086 27.745C45.1986 27.745 44.7636 27.93 44.4036 28.3C44.0536 28.66 43.8786 29.16 43.8786 29.8C43.8786 30.44 44.0536 30.95 44.4036 31.33C44.7636 31.7 45.1986 31.885 45.7086 31.885C46.2186 31.885 46.6486 31.7 46.9986 31.33C47.3586 30.96 47.5386 30.455 47.5386 29.815ZM53.2493 24.76C52.7993 24.76 52.4293 24.63 52.1393 24.37C51.8593 24.1 51.7193 23.77 51.7193 23.38C51.7193 22.98 51.8593 22.65 52.1393 22.39C52.4293 22.12 52.7993 21.985 53.2493 21.985C53.6893 21.985 54.0493 22.12 54.3293 22.39C54.6193 22.65 54.7643 22.98 54.7643 23.38C54.7643 23.77 54.6193 24.1 54.3293 24.37C54.0493 24.63 53.6893 24.76 53.2493 24.76ZM54.5243 25.63V34H51.9593V25.63H54.5243ZM60.5831 27.76H59.2031V34H56.6381V27.76H55.7081V25.63H56.6381V25.39C56.6381 24.36 56.9331 23.58 57.5231 23.05C58.1131 22.51 58.9781 22.24 60.1181 22.24C60.3081 22.24 60.4481 22.245 60.5381 22.255V24.43C60.0481 24.4 59.7031 24.47 59.5031 24.64C59.3031 24.81 59.2031 25.115 59.2031 25.555V25.63H60.5831V27.76Z" fill="#FDE8C2"/>
<defs>
<linearGradient id="paint0_linear_47_6" x1="2.39531" y1="3.26219e-07" x2="28.9557" y2="86.5208" gradientUnits="userSpaceOnUse">
<stop stop-color="#4E505E"/>
<stop offset="1" stop-color="#50A49F"/>
</linearGradient>
</defs>
</svg>
