<svg width="192" height="55" viewBox="0 0 192 55" fill="none" xmlns="http://www.w3.org/2000/svg">
<path d="M11.7826 17.568C13.084 17.568 14.2253 17.8453 15.2066 18.4C16.2093 18.9333 16.9773 19.6907 17.5106 20.672C18.0653 21.6533 18.3426 22.784 18.3426 24.064C18.3426 25.344 18.0653 26.464 17.5106 27.424C16.956 28.384 16.1666 29.1307 15.1426 29.664C14.14 30.1973 12.9773 30.464 11.6546 30.464H6.02263C5.93729 30.464 5.89463 30.5067 5.89463 30.592V39.68C5.89463 39.8933 5.78796 40 5.57463 40H3.14263C2.92929 40 2.82263 39.8933 2.82263 39.68V17.888C2.82263 17.6747 2.92929 17.568 3.14263 17.568H11.7826ZM11.3666 27.968C12.54 27.968 13.4786 27.616 14.1826 26.912C14.908 26.208 15.2706 25.28 15.2706 24.128C15.2706 22.9547 14.908 22.016 14.1826 21.312C13.4786 20.5867 12.54 20.224 11.3666 20.224H6.02263C5.93729 20.224 5.89463 20.2667 5.89463 20.352V27.84C5.89463 27.9253 5.93729 27.968 6.02263 27.968H11.3666ZM34.7514 40C34.5807 40 34.4634 39.9253 34.3994 39.776L29.9194 30.208C29.898 30.144 29.8554 30.112 29.7914 30.112H25.1834C25.098 30.112 25.0554 30.1547 25.0554 30.24V39.68C25.0554 39.8933 24.9487 40 24.7354 40H22.3034C22.09 40 21.9834 39.8933 21.9834 39.68V17.92C21.9834 17.7067 22.09 17.6 22.3034 17.6H30.9114C32.1914 17.6 33.3114 17.8667 34.2714 18.4C35.2527 18.9333 36.01 19.68 36.5434 20.64C37.0767 21.6 37.3434 22.7093 37.3434 23.968C37.3434 25.4613 36.9487 26.7307 36.1594 27.776C35.3914 28.8 34.314 29.4933 32.9274 29.856C32.842 29.8987 32.8207 29.952 32.8634 30.016L37.5034 39.616C37.5247 39.6587 37.5354 39.712 37.5354 39.776C37.5354 39.9253 37.45 40 37.2794 40H34.7514ZM25.1834 20.256C25.098 20.256 25.0554 20.2987 25.0554 20.384V27.552C25.0554 27.6373 25.098 27.68 25.1834 27.68H30.5274C31.658 27.68 32.5647 27.3493 33.2474 26.688C33.93 26.0053 34.2714 25.1093 34.2714 24C34.2714 22.8693 33.93 21.9627 33.2474 21.28C32.5647 20.5973 31.658 20.256 30.5274 20.256H25.1834ZM56.4884 19.936C56.4884 20.1493 56.3817 20.256 56.1684 20.256H44.8084C44.723 20.256 44.6804 20.2987 44.6804 20.384V27.264C44.6804 27.3493 44.723 27.392 44.8084 27.392H52.6164C52.8297 27.392 52.9364 27.4987 52.9364 27.712V29.728C52.9364 29.9413 52.8297 30.048 52.6164 30.048H44.8084C44.723 30.048 44.6804 30.0907 44.6804 30.176V37.216C44.6804 37.3013 44.723 37.344 44.8084 37.344H56.1684C56.3817 37.344 56.4884 37.4507 56.4884 37.664V39.68C56.4884 39.8933 56.3817 40 56.1684 40H41.9284C41.715 40 41.6084 39.8933 41.6084 39.68V17.92C41.6084 17.7067 41.715 17.6 41.9284 17.6H56.1684C56.3817 17.6 56.4884 17.7067 56.4884 17.92V19.936ZM67.9334 40.288C66.3974 40.288 65.032 39.9893 63.8374 39.392C62.664 38.7733 61.7467 37.9093 61.0854 36.8C60.4454 35.6693 60.1254 34.3787 60.1254 32.928V24.64C60.1254 23.1893 60.4454 21.92 61.0854 20.832C61.7467 19.7227 62.664 18.8693 63.8374 18.272C65.032 17.6533 66.3974 17.344 67.9334 17.344C69.4694 17.344 70.824 17.6427 71.9974 18.24C73.1707 18.816 74.0774 19.6373 74.7174 20.704C75.3787 21.7707 75.7094 23.008 75.7094 24.416V24.448C75.7094 24.5547 75.6774 24.64 75.6134 24.704C75.5494 24.768 75.4747 24.8 75.3894 24.8L72.9574 24.928C72.744 24.928 72.6374 24.832 72.6374 24.64V24.544C72.6374 23.1787 72.2107 22.08 71.3574 21.248C70.504 20.416 69.3627 20 67.9334 20C66.504 20 65.352 20.416 64.4774 21.248C63.624 22.08 63.1974 23.1787 63.1974 24.544V33.056C63.1974 34.4213 63.624 35.52 64.4774 36.352C65.352 37.184 66.504 37.6 67.9334 37.6C69.3627 37.6 70.504 37.184 71.3574 36.352C72.2107 35.52 72.6374 34.4213 72.6374 33.056V32.992C72.6374 32.8 72.744 32.704 72.9574 32.704L75.3894 32.832C75.6027 32.832 75.7094 32.9387 75.7094 33.152C75.7094 34.56 75.3787 35.808 74.7174 36.896C74.0774 37.9627 73.1707 38.7947 71.9974 39.392C70.824 39.9893 69.4694 40.288 67.9334 40.288ZM80.4909 40C80.2775 40 80.1709 39.8933 80.1709 39.68V17.92C80.1709 17.7067 80.2775 17.6 80.4909 17.6H82.9229C83.1362 17.6 83.2429 17.7067 83.2429 17.92V39.68C83.2429 39.8933 83.1362 40 82.9229 40H80.4909ZM103.363 19.936C103.363 20.1493 103.257 20.256 103.043 20.256H91.6834C91.598 20.256 91.5554 20.2987 91.5554 20.384V27.264C91.5554 27.3493 91.598 27.392 91.6834 27.392H99.4914C99.7047 27.392 99.8114 27.4987 99.8114 27.712V29.728C99.8114 29.9413 99.7047 30.048 99.4914 30.048H91.6834C91.598 30.048 91.5554 30.0907 91.5554 30.176V37.216C91.5554 37.3013 91.598 37.344 91.6834 37.344H103.043C103.257 37.344 103.363 37.4507 103.363 37.664V39.68C103.363 39.8933 103.257 40 103.043 40H88.8034C88.59 40 88.4834 39.8933 88.4834 39.68V17.92C88.4834 17.7067 88.59 17.6 88.8034 17.6H103.043C103.257 17.6 103.363 17.7067 103.363 17.92V19.936ZM120.376 40C120.206 40 120.088 39.9253 120.024 39.776L115.544 30.208C115.523 30.144 115.48 30.112 115.416 30.112H110.808C110.723 30.112 110.68 30.1547 110.68 30.24V39.68C110.68 39.8933 110.574 40 110.36 40H107.928C107.715 40 107.608 39.8933 107.608 39.68V17.92C107.608 17.7067 107.715 17.6 107.928 17.6H116.536C117.816 17.6 118.936 17.8667 119.896 18.4C120.878 18.9333 121.635 19.68 122.168 20.64C122.702 21.6 122.968 22.7093 122.968 23.968C122.968 25.4613 122.574 26.7307 121.784 27.776C121.016 28.8 119.939 29.4933 118.552 29.856C118.467 29.8987 118.446 29.952 118.488 30.016L123.128 39.616C123.15 39.6587 123.16 39.712 123.16 39.776C123.16 39.9253 123.075 40 122.904 40H120.376ZM110.808 20.256C110.723 20.256 110.68 20.2987 110.68 20.384V27.552C110.68 27.6373 110.723 27.68 110.808 27.68H116.152C117.283 27.68 118.19 27.3493 118.872 26.688C119.555 26.0053 119.896 25.1093 119.896 24C119.896 22.8693 119.555 21.9627 118.872 21.28C118.19 20.5973 117.283 20.256 116.152 20.256H110.808Z" fill="#333333"/>
<path fill-rule="evenodd" clip-rule="evenodd" d="M164.5 55C179.688 55 192 42.6878 192 27.5C192 12.3122 179.688 0 164.5 0C149.312 0 137 12.3122 137 27.5C137 42.6878 149.312 55 164.5 55ZM163.535 35.2193V34.2544H165.463C165.719 34.2544 165.964 34.1527 166.145 33.9718C166.326 33.7908 166.428 33.5454 166.428 33.2895V31.3596H168.36C169.981 31.3597 171.561 30.8494 172.875 29.9012C174.19 28.9529 175.173 27.6149 175.685 26.0767C176.196 24.5386 176.211 22.8784 175.726 21.3316C175.241 19.7848 174.281 18.4298 172.983 17.4589C171.685 16.488 170.115 15.9503 168.494 15.9222C166.873 15.8941 165.284 16.3769 163.954 17.3022C162.623 18.2275 161.617 19.5483 161.078 21.0773C160.54 22.6064 160.497 24.2661 160.955 25.821L153.486 33.2895C153.125 33.6513 152.921 34.1421 152.921 34.6539V37.1491C152.921 37.6609 153.124 38.1518 153.486 38.5137C153.848 38.8756 154.339 39.0789 154.851 39.0789H158.711C159.222 39.0789 159.713 38.8756 160.075 38.5137C160.437 38.1518 160.64 37.6609 160.64 37.1491V36.1842H162.57C162.826 36.1842 163.072 36.0825 163.252 35.9016C163.433 35.7206 163.535 35.4752 163.535 35.2193ZM171.654 23.0751C171.292 23.437 170.801 23.6403 170.289 23.6403C169.778 23.6403 169.287 23.437 168.925 23.0751C168.563 22.7132 168.36 22.2223 168.36 21.7105C168.36 21.1987 168.563 20.7078 168.925 20.3459C169.287 19.984 169.778 19.7807 170.289 19.7807C170.801 19.7807 171.292 19.984 171.654 20.3459C172.016 20.7078 172.219 21.1987 172.219 21.7105C172.219 22.2223 172.016 22.7132 171.654 23.0751Z" fill="#F2994A"/>
</svg>
