<svg width="29" height="28" viewBox="0 0 29 28" fill="none" xmlns="http://www.w3.org/2000/svg">
<path fill-rule="evenodd" clip-rule="evenodd" d="M1.54547 3.31108C1.54547 2.74237 1.77139 2.19695 2.17353 1.79481C2.57567 1.39267 3.12109 1.16675 3.6898 1.16675H25.0655C25.3473 1.16629 25.6265 1.22142 25.887 1.329C26.1475 1.43657 26.3842 1.59446 26.5836 1.79364C26.783 1.99282 26.9411 2.22938 27.049 2.48976C27.1569 2.75015 27.2123 3.02925 27.2121 3.31108V24.6867C27.2124 24.9686 27.1572 25.2478 27.0495 25.5083C26.9418 25.7688 26.7838 26.0056 26.5845 26.2049C26.3852 26.4043 26.1486 26.5625 25.8881 26.6703C25.6277 26.7781 25.3485 26.8336 25.0666 26.8334H3.6898C3.40811 26.8334 3.12917 26.7779 2.86893 26.6701C2.6087 26.5622 2.37225 26.4042 2.17312 26.2049C1.97398 26.0057 1.81606 25.7692 1.70836 25.5089C1.60067 25.2486 1.54532 24.9696 1.54547 24.6879V3.31108ZM11.7048 10.9528H15.1803V12.6981C15.682 11.6948 16.9653 10.7918 18.8938 10.7918C22.591 10.7918 23.4671 12.7903 23.4671 16.4571V23.2494H19.7256V17.2924C19.7256 15.2041 19.224 14.0258 17.95 14.0258C16.1825 14.0258 15.4475 15.2963 15.4475 17.2924V23.2494H11.7048V10.9528ZM5.28814 23.0896H9.0308V10.7918H5.28814V23.0884V23.0896ZM9.5663 6.78075C9.57336 7.1012 9.51634 7.41984 9.39858 7.71795C9.28083 8.01607 9.10471 8.28766 8.88057 8.51679C8.65644 8.74592 8.38879 8.92797 8.09334 9.05226C7.79788 9.17655 7.48058 9.24057 7.16005 9.24057C6.83953 9.24057 6.52222 9.17655 6.22677 9.05226C5.93132 8.92797 5.66367 8.74592 5.43953 8.51679C5.2154 8.28766 5.03928 8.01607 4.92153 7.71795C4.80377 7.41984 4.74675 7.1012 4.7538 6.78075C4.76766 6.15175 5.02725 5.55317 5.477 5.11322C5.92675 4.67326 6.5309 4.4269 7.16005 4.4269C7.78921 4.4269 8.39335 4.67326 8.84311 5.11322C9.29286 5.55317 9.55245 6.15175 9.5663 6.78075V6.78075Z" fill="#020419"/>
</svg>
