<svg width="90" height="45" viewBox="0 0 90 45" fill="none" xmlns="http://www.w3.org/2000/svg">
<path d="M39.967 2.84394V41.9614C39.967 43.2775 38.9013 44.3434 37.5855 44.3434H2.38756C0.326218 44.3434 -0.764493 41.9014 0.616407 40.3651L35.8143 1.25262C37.2753 -0.368731 39.967 0.662125 39.967 2.84394Z" fill="#F8B133"/>
<path d="M44.7351 41.5011V2.38357C44.7351 1.06747 45.8008 0.00158691 47.1167 0.00158691H82.3146C84.3759 0.00158691 85.4667 2.44362 84.0858 3.97989L48.8878 43.0924C47.4269 44.7137 44.7351 43.6829 44.7351 41.5011Z" fill="#D39126"/>
<path d="M44.7351 2.38856V41.9614C44.7351 43.2775 45.8008 44.3434 47.1167 44.3434H86.6824C88.8038 44.3434 89.8695 41.7763 88.3685 40.275L48.8028 0.702156C47.3018 -0.799091 44.7351 0.266795 44.7351 2.38856Z" fill="#F8B133"/>
</svg>
